Coordinates
version=1
nRows=16
nColumns=42
inDegrees=yes

Units are S.I. units (second, meters, Newtons, ...)
If the header above contains a line with 'inDegrees', this indicates whether rotational values are in degrees (yes) or radians (no).

endheader
time	pelvis_tilt	pelvis_list	pelvis_rotation	pelvis_tx	pelvis_ty	pelvis_tz	hip_flexion_r	hip_adduction_r	hip_rotation_r	knee_angle_r	knee_adduction_r	knee_angle_r_beta	ankle_angle_r	subtalar_angle_r	mtp_angle_r	hip_flexion_l	hip_adduction_l	hip_rotation_l	knee_angle_l	knee_adduction_l	knee_angle_l_beta	ankle_angle_l	subtalar_angle_l	mtp_angle_l	lumbar_extension	lumbar_bending	lumbar_rotation	arm_flex_r	arm_add_r	arm_rot_r	elbow_flex_r	pro_sup_r	wrist_flex_r	wrist_dev_r	arm_flex_l	arm_add_l	arm_rot_l	elbow_flex_l	pro_sup_l	wrist_flex_l	wrist_dev_l
      0.00000000	     12.00024998	      5.65237505	     -4.39641893	     -1.94132119	      0.96840002	      0.23823396	     -8.88323705	    -10.89666925	    -13.79096987	     60.47332461	     -8.92380917	      1.05545862	      6.63848958	     -5.14369864	     -9.36040516	      0.10295629	      7.24697334	    -18.66449158	     16.41987072	     -2.54813159	      0.28658081	     14.22027653	     21.67392426	     -9.36040516	    -27.35279893	     -6.32836361	     -2.18788927	     -2.47332270	     -8.22526464	      6.16304083	     30.92013895	     90.00000001	      0.00000000	      0.00000000	     -4.65243767	     -9.76968029	     -4.93333693	     34.74418855	     90.00000001	      0.00000000	      0.00000000
      0.01000000	     11.95333848	      5.41879834	     -4.27452946	     -1.93528233	      0.96953254	      0.23763897	     -8.01165003	    -10.54677020	    -13.81919877	     60.61116993	     -9.00447441	      1.05786448	      7.18103361	     -5.06919577	     -9.33761068	     -0.47329736	      7.10450448	    -18.55540330	     16.00146503	     -2.54231955	      0.27927825	     14.35664723	     21.81056555	     -9.33761068	    -27.35097035	     -5.95527744	     -2.28318596	     -2.53893643	     -8.22965517	      6.16114941	     30.83090675	     90.00000001	      0.00000000	      0.00000000	     -4.28999833	     -9.89522920	     -4.88939551	     34.91176754	     90.00000001	      0.00000000	      0.00000000
      0.02000000	     11.90670645	      5.11296764	     -4.09856185	     -1.92717928	      0.97100415	      0.23693527	     -6.91603546	    -10.08214763	    -13.87366411	     60.67026519	     -9.06405088	      1.05889589	      7.95555790	     -4.84441444	     -9.31179182	     -1.29715204	      6.90116249	    -18.31940019	     15.38132520	     -2.47678068	      0.26845477	     14.57019755	     22.06750778	     -9.31179182	    -27.34794626	     -5.47729207	     -2.40750306	     -2.64284139	     -8.21078037	      6.13964880	     30.71292870	     90.00000001	      0.00000000	      0.00000000	     -3.80734008	    -10.08231201	     -4.81862975	     35.14134419	     90.00000001	      0.00000000	      0.00000000
      0.03000000	     12.15887540	      4.77172719	     -3.82605379	     -1.91675367	      0.97314998	      0.23597014	     -6.08535950	     -9.58569042	    -14.23008129	     60.38460818	     -9.19220237	      1.05391023	      9.15580529	     -3.62172056	     -9.23641857	     -2.80555588	      6.71442919	    -17.79893123	     14.37309436	     -2.30353196	      0.25085782	     14.79966251	     22.40791892	     -9.23641857	    -27.62549920	     -4.90481066	     -2.64178595	     -2.82316687	     -8.16044722	      5.93785941	     30.61037723	     90.00000001	      0.00000000	      0.00000000	     -3.26927973	    -10.36176981	     -4.58044630	     35.46716284	     90.00000001	      0.00000000	      0.00000000
      0.04000000	     12.16922280	      4.38660235	     -3.55913470	     -1.90507927	      0.97505914	      0.23494678	     -4.72382700	     -9.01076902	    -14.51712944	     60.07946438	     -9.27295058	      1.04858447	     10.28990112	     -2.81384486	     -9.16464465	     -4.13007200	      6.47275429	    -17.29190783	     13.35373079	     -2.16013198	      0.23306657	     15.00167008	     22.56607333	     -9.16464465	    -27.67547602	     -4.27209755	     -2.84898743	     -3.00799342	     -8.11934191	      5.80694581	     30.48761247	     90.00000001	      0.00000000	      0.00000000	     -2.65001589	    -10.64563485	     -4.46146982	     35.88140760	     90.00000001	      0.00000000	      0.00000000
      0.05000000	     11.92447498	      3.97710730	     -3.33067258	     -1.89250391	      0.97655767	      0.23395659	     -2.87432611	     -8.36195509	    -14.59027174	     59.71584301	     -9.21598686	      1.04223808	     11.25013729	     -2.61456326	     -9.13845453	     -5.16439024	      6.16473352	    -17.06872350	     12.45454753	     -2.06956112	      0.21737286	     15.20927195	     22.83294138	     -9.13845453	    -27.46291964	     -3.62409798	     -3.00633918	     -3.22440309	     -8.09645807	      5.76920696	     30.38237383	     90.00000001	      0.00000000	      0.00000000	     -1.99678197	    -10.93781938	     -4.44968360	     36.41705886	     90.00000001	      0.00000000	      0.00000000
      0.06000000	     12.13495740	      3.52126310	     -3.01282056	     -1.87842401	      0.97865602	      0.23291962	     -1.71926218	     -7.68720133	    -14.97189575	     58.72220058	     -9.13523903	      1.02489574	     12.52103183	     -1.36326509	     -9.06046537	     -7.07404661	      5.82335181	    -16.37012683	     11.02872094	     -1.78068077	      0.19248749	     15.34440968	     23.02678590	     -9.06046537	    -27.67852227	     -2.90755097	     -3.24865496	     -3.50656228	     -8.01568454	      5.48089364	     30.31178475	     90.00000001	      0.00000000	      0.00000000	     -1.35095777	    -11.29715107	     -4.33496979	     37.02099848	     90.00000001	      0.00000000	      0.00000000
      0.07000000	     11.78071816	      3.13797215	     -2.77370651	     -1.86452427	      0.97963960	      0.23187513	      0.27855801	     -7.06657899	    -14.99758202	     57.81001915	     -8.83954802	      1.00897517	     13.45592841	     -1.15706951	     -9.03247373	     -8.12271919	      5.53177049	    -16.10163851	     10.01338846	     -1.67312656	      0.17476660	     15.59304742	     23.34384786	     -9.03247373	    -27.32934415	     -2.27776894	     -3.40846884	     -3.77227631	     -7.98481157	      5.41853850	     30.20281934	     90.00000001	      0.00000000	      0.00000000	     -0.68015987	    -11.61232785	     -4.35415403	     37.70253592	     90.00000001	      0.00000000	      0.00000000
      0.08000000	     11.95554849	      2.69265053	     -2.46711920	     -1.84962957	      0.98117032	      0.23086734	      1.37507028	     -6.38813186	    -15.16806290	     56.18181059	     -8.42652611	      0.98055757	     14.40060559	     -0.40231763	     -8.96757509	    -10.04529619	      5.18441008	    -15.58377907	      8.54215430	     -1.47118040	      0.14908872	     15.67004646	     23.59982093	     -8.96757509	    -27.47887937	     -1.58023507	     -3.63057653	     -4.10683019	     -7.91430262	      5.12446023	     30.16636064	     90.00000001	      0.00000000	      0.00000000	     -0.05814080	    -11.95514578	     -4.35151384	     38.45748744	     90.00000001	      0.00000000	      0.00000000
      0.09000000	     11.51190690	      2.41082212	     -2.29025198	     -1.83538713	      0.98133740	      0.22999879	      3.35153235	     -5.88776344	    -15.14916875	     54.66642228	     -7.95830096	      0.95410906	     15.14682906	     -0.33197996	     -8.94092853	    -11.02124264	      4.96183102	    -15.40795335	      7.50693358	     -1.32396307	      0.13102071	     15.91092662	     23.96399440	     -8.94092853	    -27.00740550	     -1.09622442	     -3.79315980	     -4.39146575	     -7.86390801	      5.04745692	     30.09337292	     90.00000001	      0.00000000	      0.00000000	      0.51946440	    -12.29321852	     -4.40511961	     39.27530397	     90.00000001	      0.00000000	      0.00000000
      0.10000000	     11.67658795	      2.02540046	     -2.04011680	     -1.82047277	      0.98211334	      0.22926384	      4.25376954	     -5.24199700	    -15.13860097	     52.38969787	     -7.32488710	      0.91437272	     15.67943625	     -0.15868822	     -8.87838060	    -12.90970329	      4.59845206	    -15.09129600	      6.09157376	     -1.05097364	      0.10631802	     15.94533575	     24.34041781	     -8.87838060	    -27.13282341	     -0.50940466	     -4.00618808	     -4.71741694	     -7.78132649	      4.76730830	     30.11961552	     90.00000001	      0.00000000	      0.00000000	      1.06762602	    -12.65437620	     -4.45782004	     40.11621791	     90.00000001	      0.00000000	      0.00000000
      0.11000000	     11.18177275	      1.89591668	     -1.90906409	     -1.80634402	      0.98137015	      0.22845037	      6.08749125	     -4.92007938	    -15.05906419	     50.31437550	     -6.73663229	      0.87815151	     16.18820380	     -0.21870444	     -8.85548408	    -13.75322215	      4.57675216	    -15.08563217	      5.14871510	     -1.05201783	      0.08986203	     16.24542913	     24.75151034	     -8.85548408	    -26.58285721	     -0.20743780	     -4.17348671	     -5.00726039	     -7.72569970	      4.69981462	     30.04263238	     90.00000001	      0.00000000	      0.00000000	      1.58443329	    -12.98163198	     -4.51983027	     41.02015802	     90.00000001	      0.00000000	      0.00000000
      0.12000000	     11.26537891	      1.64578138	     -1.74513919	     -1.79167932	      0.98115182	      0.22794934	      6.89172424	     -4.44479478	    -14.89340321	     47.56179366	     -5.92435874	      0.83010990	     16.48898505	     -0.40154497	     -8.81413807	    -15.44193130	      4.30076208	    -15.06575010	      3.92759639	     -0.73788551	      0.06854949	     16.42858609	     25.50773342	     -8.81413807	    -26.60800330	      0.18619489	     -4.33127204	     -5.31462737	     -7.64353070	      4.49472689	     30.03353593	     90.00000001	      0.00000000	      0.00000000	      2.07432258	    -13.33350616	     -4.59751092	     41.93617302	     90.00000001	      0.00000000	      0.00000000
      0.13000000	     10.71390971	      1.93203259	     -1.62841020	     -1.77784455	      0.97944533	      0.22706346	      8.64237076	     -4.68012591	    -15.08216201	     45.09952921	     -5.40459339	      0.78713528	     16.53011351	     -0.41817219	     -8.80093406	    -15.92034843	      4.65675012	    -15.52709427	      3.60406840	     -0.70211699	      0.06290286	     16.68304328	     25.44756710	     -8.80093406	    -25.97596425	      0.04074920	     -4.57827414	     -5.67893289	     -7.57362848	      4.47494842	     30.07685924	     90.00000001	      0.00000000	      0.00000000	      2.68700161	    -13.67083446	     -4.64610114	     42.63133123	     90.00000001	      0.00000000	      0.00000000
      0.14000000	     10.56107291	      1.64453355	     -1.61450164	     -1.76375464	      0.97805899	      0.22694246	      9.55923918	     -4.02591437	    -14.67189450	     41.87864583	     -4.69911444	      0.73092026	     16.87014973	     -0.36218888	     -8.77610424	    -17.28705895	      4.47217496	    -15.29526547	      2.36359001	     -0.70450195	      0.04125243	     17.22594128	     26.69061437	     -8.77610424	    -25.80456287	      0.40325772	     -4.62681181	     -5.82750177	     -7.47552178	      4.33327126	     29.92739838	     90.00000001	      0.00000000	      0.00000000	      3.04252453	    -14.00917181	     -4.68572431	     43.84933540	     90.00000001	      0.00000000	      0.00000000
      0.15000000	     10.71953824	      1.43349713	     -1.43773195	     -1.74939563	      0.97679799	      0.22674376	      9.88227209	     -3.52836278	    -14.65443864	     38.24826250	     -4.05906793	      0.66755811	     16.74212017	     -0.26826501	     -8.74160548	    -18.75562201	      4.11615385	    -15.82774614	      1.76315179	     -0.34990692	      0.03077280	     17.68492992	     27.65860003	     -8.74160548	    -25.93178845	      0.73331174	     -4.81222207	     -6.07330679	     -7.38655677	      4.15362248	     29.98220743	     90.00000001	      0.00000000	      0.00000000	      3.53575910	    -14.38067445	     -4.69000279	     44.74375674	     90.00000001	      0.00000000	      0.00000000
